<svg width="336" height="365" viewBox="0 0 336 365" fill="none" xmlns="http://www.w3.org/2000/svg">
    <circle cx="168" cy="197" r="168" fill="#CAB5AE"/>
    <path d="M71.7642 291H36.821L151.558 72.8182H189.591L231.885 291H196.942L165.088 112.449H163.384L71.7642 291ZM91.7926 205.56H205.145L200.457 233.259H87.1051L91.7926 205.56Z" fill="#4C4CB3"/>
    <path d="M276.164 97.0388C278.274 96.6351 279.531 97.4883 279.935 99.5985C280.338 101.709 279.485 102.966 277.375 103.369L226.731 113.059C225.101 113.371 224.247 114.627 224.171 116.829C224.096 119.031 223.242 120.288 221.612 120.6C219.502 121.004 218.245 120.151 217.841 118.041C217.297 115.195 217.687 112.734 219.014 110.657C220.378 108.607 222.547 107.297 225.52 106.728L276.164 97.0388ZM223.291 146.528C222.612 142.979 223.252 139.741 225.211 136.814C227.208 133.913 229.981 132.123 233.53 131.444C235.832 131.004 238.065 131.157 240.229 131.903C244.877 133.499 247.671 136.759 248.613 141.683L251.035 154.344L257.366 153.133C259.156 152.79 260.543 151.895 261.525 150.448C262.508 149.001 262.828 147.382 262.485 145.591L260.063 132.93C259.659 130.82 260.512 129.563 262.623 129.16C264.733 128.756 265.99 129.609 266.393 131.719L268.816 144.38C269.495 147.929 268.836 151.154 266.839 154.055C264.88 156.982 262.126 158.785 258.577 159.463L230.09 164.914C227.98 165.317 226.723 164.464 226.319 162.354L223.291 146.528ZM244.705 155.555L242.283 142.894C241.946 141.136 241.035 139.752 239.55 138.744C238.102 137.762 236.499 137.439 234.741 137.775C233.015 138.105 231.647 139.013 230.639 140.499C229.63 141.984 229.291 143.59 229.622 145.317L232.044 157.978L244.705 155.555ZM232.512 177.575L270.495 170.308C272.605 169.904 273.862 170.757 274.266 172.867L277.294 188.694C277.973 192.243 277.314 195.467 275.317 198.368C273.358 201.295 270.604 203.098 267.055 203.777L238.568 209.227C236.458 209.631 235.201 208.778 234.797 206.667C234.393 204.557 235.247 203.3 237.357 202.897L265.844 197.446C267.635 197.104 269.021 196.209 270.003 194.762C270.986 193.314 271.306 191.695 270.963 189.905L268.541 177.244L233.723 183.905C231.613 184.309 230.356 183.456 229.953 181.346C229.549 179.235 230.402 177.978 232.512 177.575ZM287.589 242.503C287.992 244.613 287.139 245.87 285.029 246.274L237.55 255.357C234.001 256.036 230.777 255.377 227.876 253.38C224.949 251.421 223.146 248.668 222.467 245.119L220.045 232.458C219.641 230.348 220.494 229.091 222.604 228.687C224.715 228.283 225.972 229.136 226.375 231.247L228.798 243.908C229.134 245.666 230.042 247.033 231.521 248.01C232.975 249.024 234.581 249.363 236.339 249.027L242.67 247.816L240.247 235.155C239.305 230.231 240.699 226.17 244.429 222.97C246.165 221.478 248.184 220.512 250.486 220.071L269.478 216.438C273.026 215.759 276.248 216.402 279.143 218.367C282.076 220.358 283.882 223.128 284.561 226.677L287.589 242.503ZM280.653 240.549L278.23 227.888C277.894 226.129 276.983 224.746 275.497 223.738C274.05 222.755 272.447 222.432 270.689 222.768L251.697 226.402C249.971 226.732 248.603 227.64 247.595 229.126C246.587 230.611 246.248 232.217 246.578 233.944L249 246.605L280.653 240.549Z" fill="#1A1B5D"/>
    <mask id="mask0_26_101" style="mask-type:alpha" maskUnits="userSpaceOnUse" x="109" y="146" width="79" height="79">
        <rect width="79" height="79" transform="matrix(-1 0 0 1 188 146)" fill="#D9D9D9"/>
    </mask>
    <g mask="url(#mask0_26_101)">
        <path d="M181.417 211.834V205.25H115.583V211.834H181.417ZM174.833 198.667V172.334H168.25V198.667H174.833ZM161.667 198.667V159.167H155.083V198.667H161.667ZM148.5 198.667V159.167H141.917V198.667H148.5ZM125.458 198.667L138.625 175.625L132.865 172.334L119.698 195.375L125.458 198.667Z" fill="#1A1B5D"/>
    </g>
</svg>
